<?xml version="1.0" encoding="utf-8"?>
<!-- Generator: Adobe Illustrator 23.0.0, SVG Export Plug-In . SVG Version: 6.00 Build 0)  -->
<svg version="1.1" id="Layer_1" xmlns="http://www.w3.org/2000/svg" xmlns:xlink="http://www.w3.org/1999/xlink" x="0px" y="0px"
	 viewBox="0 0 708.66 708.66" style="enable-background:new 0 0 708.66 708.66;" xml:space="preserve">
<style type="text/css">
	.st0{fill:none;stroke:url(#SVGID_1_);stroke-width:0.5;stroke-miterlimit:10;}
	.st1{fill:none;stroke:url(#SVGID_2_);stroke-width:2;stroke-miterlimit:10;}
	.st2{fill:url(#SVGID_3_);}
	.st3{fill:url(#SVGID_4_);}
	.st4{fill:#FFFFFF;}
	.st5{fill:url(#SVGID_5_);}
	.st6{fill:url(#SVGID_6_);}
	.st7{fill:url(#SVGID_7_);}
	.st8{fill:url(#SVGID_8_);}
	.st9{fill:url(#SVGID_9_);}
	.st10{fill:url(#SVGID_10_);}
</style>
<g>
	<g>
		<linearGradient id="SVGID_1_" gradientUnits="userSpaceOnUse" x1="7.0386" y1="353.8185" x2="701.666" y2="353.8185">
			<stop  offset="0" style="stop-color:#58BB69"/>
			<stop  offset="1" style="stop-color:#00B0BA"/>
		</linearGradient>
		<path class="st0" d="M683.18,470.83c25.6-75.92,24.25-158.9-4.11-234.02H29.63c-28.38,75.15-29.7,158.14-4.11,234.02H683.18z"/>
		<linearGradient id="SVGID_2_" gradientUnits="userSpaceOnUse" x1="41.6465" y1="353.8184" x2="667.058" y2="353.8184">
			<stop  offset="0" style="stop-color:#E4097E"/>
			<stop  offset="0.4618" style="stop-color:#942067"/>
			<stop  offset="1" style="stop-color:#260F39"/>
		</linearGradient>
		<circle class="st1" cx="354.35" cy="353.82" r="311.71"/>
	</g>
	<g>
		<g>
			<linearGradient id="SVGID_3_" gradientUnits="userSpaceOnUse" x1="354.7237" y1="85.7843" x2="354.7237" y2="692.7772">
				<stop  offset="0" style="stop-color:#FFFFFF;stop-opacity:0"/>
				<stop  offset="0.318" style="stop-color:#F0EFEE;stop-opacity:0.3116"/>
				<stop  offset="1" style="stop-color:#DBDADA;stop-opacity:0.98"/>
			</linearGradient>
			<circle class="st2" cx="354.72" cy="379.98" r="248.39"/>
		</g>
		<linearGradient id="SVGID_4_" gradientUnits="userSpaceOnUse" x1="354.3845" y1="350.9754" x2="351.2535" y2="626.4888">
			<stop  offset="0" style="stop-color:#E4097E"/>
			<stop  offset="0.4618" style="stop-color:#942067"/>
		</linearGradient>
		<circle class="st3" cx="354.35" cy="353.82" r="233.28"/>
		<g>
			
				<ellipse transform="matrix(0.7071 -0.7071 0.7071 0.7071 -146.4001 354.1957)" class="st4" cx="354.35" cy="353.82" rx="202.62" ry="202.62"/>
		</g>
	</g>
	<g>
		<circle class="st4" cx="325.03" cy="43.64" r="23.68"/>
		<linearGradient id="SVGID_5_" gradientUnits="userSpaceOnUse" x1="310.8168" y1="43.6354" x2="339.2514" y2="43.6354">
			<stop  offset="0" style="stop-color:#FFEC00"/>
			<stop  offset="0.4562" style="stop-color:#F6891F"/>
			<stop  offset="0.9944" style="stop-color:#E21F26"/>
		</linearGradient>
		<circle class="st5" cx="325.03" cy="43.64" r="14.22"/>
	</g>
	<g>
		<path class="st4" d="M18.99,358.42c0-13.08,10.6-23.68,23.68-23.68c13.08,0,23.68,10.6,23.68,23.68
			c0,13.08-10.6,23.68-23.68,23.68C29.59,382.1,18.99,371.5,18.99,358.42z"/>
		
			<linearGradient id="SVGID_6_" gradientUnits="userSpaceOnUse" x1="6615.644" y1="684.9198" x2="6615.644" y2="-16.1077" gradientTransform="matrix(-1 0 0 -1 6658.3154 702.3147)">
			<stop  offset="0" style="stop-color:#E94793"/>
			<stop  offset="1" style="stop-color:#6A2B82"/>
		</linearGradient>
		<circle class="st6" cx="42.67" cy="358.42" r="14.22"/>
	</g>
	<g>
		<circle class="st4" cx="380.31" cy="43.64" r="23.68"/>
		
			<linearGradient id="SVGID_7_" gradientUnits="userSpaceOnUse" x1="6659.0874" y1="681.8954" x2="6687.522" y2="681.8954" gradientTransform="matrix(-1 0 0 -1 7053.6108 725.5308)">
			<stop  offset="0.2603" style="stop-color:#00AC92"/>
			<stop  offset="0.7296" style="stop-color:#00A4A9"/>
			<stop  offset="1" style="stop-color:#4068AA"/>
		</linearGradient>
		<circle class="st7" cx="380.31" cy="43.64" r="14.22"/>
	</g>
	<g>
		<path class="st4" d="M686.35,352.93c0,13.08-10.6,23.68-23.68,23.68c-13.08,0-23.68-10.6-23.68-23.68
			c0-13.08,10.6-23.68,23.68-23.68C675.75,329.25,686.35,339.85,686.35,352.93z"/>
		
			<linearGradient id="SVGID_8_" gradientUnits="userSpaceOnUse" x1="267.3734" y1="670.7395" x2="267.3734" y2="-30.288" gradientTransform="matrix(1 0 0 1 395.2954 23.2161)">
			<stop  offset="0" style="stop-color:#AB4C9D"/>
			<stop  offset="1" style="stop-color:#2E3192"/>
		</linearGradient>
		<circle class="st8" cx="662.67" cy="352.93" r="14.22"/>
	</g>
	<g>
		<circle class="st4" cx="325.03" cy="667.72" r="23.68"/>
		<linearGradient id="SVGID_9_" gradientUnits="userSpaceOnUse" x1="310.8168" y1="667.7151" x2="339.2514" y2="667.7151">
			<stop  offset="0" style="stop-color:#51BE93"/>
			<stop  offset="1" style="stop-color:#145E85"/>
		</linearGradient>
		<circle class="st9" cx="325.03" cy="667.72" r="14.22"/>
	</g>
	<g>
		<circle class="st4" cx="380.31" cy="667.72" r="23.68"/>
		
			<linearGradient id="SVGID_10_" gradientUnits="userSpaceOnUse" x1="6659.0874" y1="57.8157" x2="6687.522" y2="57.8157" gradientTransform="matrix(-1 0 0 -1 7053.6108 725.5308)">
			<stop  offset="0" style="stop-color:#F3716C"/>
			<stop  offset="0.9944" style="stop-color:#ED3895"/>
		</linearGradient>
		<circle class="st10" cx="380.31" cy="667.72" r="14.22"/>
	</g>
	<g>
		<path d="M326.28,218.32c-0.19,8.47-1.57,21.88-4.14,40.23c-2.38,17.4-3.57,30.77-3.57,40.09c0,2.95,0.09,5.75,0.29,8.42
			c0,0.66-0.29,1.31-0.86,1.93c-0.57,0.62-1.24,0.93-2,0.93c-2.66,0-4.42-0.24-5.28-0.71c-3.62-2.09-5.42-6.04-5.42-11.84
			c0-1.14,0.07-2.92,0.21-5.35c0.14-2.42,0.21-4.21,0.21-5.35c0-1.9,0.24-4.8,0.71-8.7c0.47-3.9,0.71-6.89,0.71-8.99
			c-1.33,0.1-3.16-0.09-5.49-0.57c-2.33-0.47-4.02-0.71-5.06-0.71c-1.24,0-2.43,0.19-3.57,0.57c-2.28,7.51-3.62,18.59-3.99,33.24
			c-3.23,1.33-6.37,1.19-9.42-0.43c-2.19-1.14-3.28-3.42-3.28-6.85c0-0.76,0.07-1.78,0.21-3.07c0.14-1.28,0.21-2.07,0.21-2.35
			c0.29-5.14,1.38-15.31,3.28-30.53c1.62-12.74,2.38-22.87,2.28-30.39c0-1.05,0.74-1.71,2.21-2c1.47-0.29,2.31-0.57,2.5-0.86
			c0.57,0.67,1.95,1.24,4.14,1.71c1.81,0.38,2.9,1.24,3.28,2.57c0.76,2.38,1.14,5.04,1.14,7.99c0,2.09-0.31,5.4-0.93,9.91
			c-0.62,4.52-0.93,7.97-0.93,10.34c1.14,0.86,2.57,1.38,4.28,1.57c1.14,0.19,2.76,0.24,4.85,0.14c2.76-0.19,4.42-0.29,4.99-0.29
			c2.38-9.99,4.47-22.92,6.28-38.8c0.38-3.33,1.57-4.99,3.57-4.99C322.76,214.71,325.61,215.76,326.28,218.32z"/>
		<path d="M393.47,299.07c0.29,0.38,0.43,0.81,0.43,1.28c0,2.19-2.28,3.85-6.85,4.99c-5.04-3.9-11.32-9.89-18.83-17.97
			c-8.37-9.03-14.6-15.31-18.69-18.83c-0.29,2.47-0.81,8.94-1.57,19.4c-0.48,7.9-1.33,14.17-2.57,18.83c-0.19,0-0.78,0.24-1.78,0.71
			c-1,0.48-1.83,0.62-2.5,0.43c-4.19-0.95-6.28-3.85-6.28-8.7c0-1.43,0.19-3.33,0.57-5.71c0.38-2.76,0.62-4.47,0.71-5.14
			c0.38-5.51,0.62-12.08,0.71-19.69v-15.55c0-12.93,0.71-23.82,2.14-32.67c0.95-5.9,6.51-8.61,16.69-8.13
			c5.14,0.19,9.61,2.76,13.41,7.7c3.52,4.56,5.28,9.51,5.28,14.84c0,4.47-1.67,8.94-4.99,13.41c-2.85,3.99-6.37,7.13-10.56,9.42
			c-1.71,0.95-2.57,2-2.57,3.14c0,1.24,1,2.71,3,4.42c1.52,1.24,3.04,2.47,4.57,3.71c0.09,0.1,5.33,4.85,15.69,14.27
			C386.05,289.13,390.71,294.41,393.47,299.07z M363.37,235.01c0.29-1.71,0.38-3.23,0.29-4.56c-0.29-2-1.12-3.8-2.5-5.42
			c-1.38-1.62-3.59-2.42-6.63-2.42c-2.28,0-3.71,0.71-4.28,2.14c-0.48,2.38-0.71,5.09-0.71,8.13c0,1.24,0.14,4.42,0.43,9.56
			c0.19,3.9,0.19,7.09,0,9.56C357.85,246.09,362.32,240.43,363.37,235.01z"/>
		<path d="M427.42,266.54c-0.95,2.19-1.85,4.38-2.71,6.56c-1.14,2.57-2.38,4.61-3.71,6.13c-2.95,3.71-5.9,7.37-8.84,10.98
			c-3.52,4.38-6.71,7.42-9.56,9.13c-0.95,1.14-2,2.33-3.14,3.57c-1.14,1.23-2.28,1.85-3.42,1.85c-0.57,0-1.24-0.14-2-0.43
			c-0.76-0.29-1.59-0.62-2.5-1c-0.9-0.38-1.55-1-1.93-1.85c-0.29-3.99-0.43-8.27-0.43-12.84c0-4.66,0.19-11.6,0.57-20.83
			c0.38-9.22,0.57-16.17,0.57-20.83c0-6.18-0.24-11.84-0.71-16.98c-0.1-0.09-1.14-1.19-3.14-3.28c-1.24-1.23-1.85-2.38-1.85-3.42
			c0-0.47,0.09-0.95,0.29-1.43c0.47-1.14,1.52-1.81,3.14-2c1.24-0.19,2.47-0.33,3.71-0.43c7.99,1.71,16.36,6.18,25.11,13.41
			c2.28,1.9,4.14,3.9,5.56,5.99c4.57,6.75,6.85,13.08,6.85,18.97C429.27,260.88,428.66,263.78,427.42,266.54z M417.15,251.28
			c-0.86-5.99-5.94-11.27-15.26-15.83c-0.67,15.88-0.86,32.72-0.57,50.5c10.75-10.75,16.12-20.97,16.12-30.67
			C417.43,253.94,417.34,252.61,417.15,251.28z"/>
	</g>
	<g>
		<path d="M220.74,363.95c0,2.32-1.55,3.79-4.64,4.39c-4.04,0.77-6.54,1.68-7.48,2.71c-9.63,10.15-14.45,23.27-14.45,39.35
			c0,7.57,1.2,14.71,3.61,21.42c1.98,5.51,3.4,9.12,4.26,10.84c2.15,4.21,4.77,7.22,7.87,9.03c1.29,0.6,2.58,1.16,3.87,1.68
			c1.38,0.77,2.06,1.85,2.06,3.23c0,1.38-0.45,2.62-1.35,3.74c-0.9,1.12-1.87,1.55-2.9,1.29c-1.12-0.17-2.84-0.73-5.16-1.68
			c-4.13-2.41-8.6-7.53-13.42-15.35c-1.21-1.98-2.43-4.02-3.68-6.13c-1.25-2.11-2.17-4.11-2.77-6c-0.43-1.38-1.16-6.92-2.19-16.64
			c-0.34-3.01-0.52-5.93-0.52-8.77c0-15.22,4.43-28.17,13.29-38.83c5.16-6.19,10.54-9.29,16.13-9.29c2.41,0,4.6,0.73,6.58,2.19
			C220.44,361.54,220.74,362.48,220.74,363.95z"/>
		<path d="M262.67,413.88c-5.08,11.44-12.26,18.24-21.55,20.38c-1.12,0.26-2.24,0.39-3.35,0.39c-4.9,0-9.85-2.67-14.84-8
			c-3.35-3.61-5.03-8.3-5.03-14.06c0-6.36,1.89-13.2,5.68-20.51c1.63-3.1,3.61-5.76,5.93-8c2.67-2.67,5.2-4,7.61-4
			c1.38,0,2.67,0.52,3.87,1.55c1.2,1.03,4.43,2.41,9.68,4.13c4.13,1.38,7.05,3.7,8.77,6.97c3.01,5.76,4.52,10.71,4.52,14.84
			C263.96,409.88,263.53,411.98,262.67,413.88z M252.35,405.88c-0.6-6.28-2.28-10.02-5.03-11.22c-0.43-0.17-0.82-0.26-1.16-0.26
			c-1.03,0-2.32,0.86-3.87,2.58c-1.72,1.98-3.05,3.14-4,3.48c-0.6,0.26-1.46,0-2.58-0.77c-1.12-0.77-1.85-1.16-2.19-1.16
			c-0.26,0-0.47,0.09-0.65,0.26c-3.01,2.58-4.52,6.58-4.52,12c0,3.7,0.86,6.84,2.58,9.42c2.41,3.53,4.43,5.29,6.06,5.29
			c3.78,0,7.44-2.37,10.97-7.1C251.31,413.92,252.78,409.75,252.35,405.88z"/>
		<path d="M323.05,363.56c-1.21,11.53-2.37,23.09-3.48,34.71c-1.46,13.76-2.19,25.25-2.19,34.45c0,3.01,0.08,5.98,0.26,8.9
			c0.08,1.38-0.41,2.58-1.48,3.61c-1.08,1.03-2.3,1.55-3.68,1.55c-2.67,0-4.9-1.81-6.71-5.42c-5.51-10.75-12.34-27.61-20.51-50.58
			c-0.17-0.52-0.39-0.77-0.65-0.77c-0.6,0-0.99,0.6-1.16,1.81c-1.46,12.3-2.19,25.25-2.19,38.83c0,6.54,0.17,13.2,0.52,20
			c0.08,2.49-0.65,4.21-2.19,5.16c-0.6,0.6-1.25,0.9-1.94,0.9c-0.6,0-1.38-0.26-2.32-0.77c-1.29-0.6-2.11-0.99-2.45-1.16
			c-1.12-0.34-1.81-1.38-2.06-3.1c-0.09-1.38-0.17-2.8-0.26-4.26c-0.26-4.82-0.39-9.85-0.39-15.09c0-9.12,0.52-20.51,1.55-34.19
			c1.63-20.81,2.54-32.34,2.71-34.58c0.08-1.89,1.68-2.84,4.77-2.84c1.46-0.17,3.61,0.9,6.45,3.23c2.75,5.25,6.15,13.76,10.19,25.54
			c3.87,11.27,7.4,19.83,10.58,25.67c1.29-11.44,3.31-28.73,6.06-51.87c0.26-1.72,1.5-2.58,3.74-2.58c0.77,0,1.68,0.13,2.71,0.39
			c1.37,0.34,2.19,0.56,2.45,0.65C322.23,362.1,322.79,362.7,323.05,363.56z"/>
		<path d="M384.33,363.56c-1.21,11.53-2.37,23.09-3.48,34.71c-1.46,13.76-2.19,25.25-2.19,34.45c0,3.01,0.09,5.98,0.26,8.9
			c0.09,1.38-0.41,2.58-1.48,3.61c-1.08,1.03-2.3,1.55-3.68,1.55c-2.67,0-4.9-1.81-6.71-5.42c-5.51-10.75-12.34-27.61-20.51-50.58
			c-0.17-0.52-0.39-0.77-0.65-0.77c-0.6,0-0.99,0.6-1.16,1.81c-1.46,12.3-2.19,25.25-2.19,38.83c0,6.54,0.17,13.2,0.52,20
			c0.08,2.49-0.65,4.21-2.19,5.16c-0.6,0.6-1.25,0.9-1.94,0.9c-0.6,0-1.38-0.26-2.32-0.77c-1.29-0.6-2.11-0.99-2.45-1.16
			c-1.12-0.34-1.81-1.38-2.06-3.1c-0.09-1.38-0.17-2.8-0.26-4.26c-0.26-4.82-0.39-9.85-0.39-15.09c0-9.12,0.52-20.51,1.55-34.19
			c1.63-20.81,2.54-32.34,2.71-34.58c0.08-1.89,1.68-2.84,4.77-2.84c1.46-0.17,3.61,0.9,6.45,3.23c2.75,5.25,6.15,13.76,10.19,25.54
			c3.87,11.27,7.4,19.83,10.58,25.67c1.29-11.44,3.31-28.73,6.06-51.87c0.26-1.72,1.5-2.58,3.74-2.58c0.77,0,1.68,0.13,2.71,0.39
			c1.38,0.34,2.19,0.56,2.45,0.65C383.51,362.1,384.07,362.7,384.33,363.56z"/>
		<path d="M435.29,377.23c-3.18,1.29-7.87,2.8-14.06,4.52c-6.19,1.72-10.88,3.22-14.06,4.51c-0.77,2.24-1.33,7.23-1.68,14.97
			c1.38,0.52,2.97,0.77,4.77,0.77c1.29,0,3.31-0.21,6.06-0.64c2.75-0.43,4.77-0.65,6.06-0.65c2.41,0,4.47,0.52,6.19,1.55
			c1.2,1.72,1.81,2.84,1.81,3.35c0,0.6-0.3,1.08-0.9,1.42c-0.17,0.09-0.77,0.69-1.81,1.81c-0.69,0.77-1.55,1.12-2.58,1.03
			c-1.81,0.43-5.12,0.69-9.93,0.77c-4.04,0.09-7.27,0.6-9.68,1.55c-1.63,6.37-2.45,11.4-2.45,15.09c0,2.5,0.34,4.47,1.03,5.94
			c4.04,2.84,11.05,4.04,21.03,3.61c0.69,0,1.42-0.32,2.19-0.97c0.77-0.65,1.42-0.97,1.94-0.97c2.41-0.52,4,1.29,4.77,5.42
			c0.26,1.38,0.02,2.64-0.71,3.81c-0.73,1.16-1.79,1.78-3.16,1.87c-10.41,0.34-19.44-0.47-27.09-2.45c-2.41-0.6-4.6-1.94-6.58-4
			c-1.98-2.06-3.1-4.39-3.35-6.97c-0.77-7.48-0.77-14.19,0-20.13c-2.41-1.63-3.48-3.22-3.23-4.77c0.08-0.77,0.75-1.48,2-2.13
			c1.25-0.64,1.96-1.31,2.13-2c0.17-0.69,0.52-4.77,1.03-12.26c-4.82-0.95-7.18-2.75-7.1-5.42c0.08-2.49,1.59-4.47,4.52-5.93
			c2.75-1.12,5.5-2.24,8.26-3.35c3.27-1.63,7.31-3.1,12.13-4.39c4.13-1.12,8.3-2.19,12.51-3.23c0.43-0.08,0.95-0.13,1.55-0.13
			c2.32,0,5.03,0.9,8.13,2.71c0.08,0.34,0.3,0.99,0.64,1.93c0.34,0.95,0.52,1.63,0.52,2.06
			C436.19,376.25,435.89,376.8,435.29,377.23z"/>
		<path d="M473.48,363.95c0,2.32-1.55,3.79-4.64,4.39c-4.04,0.77-6.54,1.68-7.48,2.71c-9.63,10.15-14.45,23.27-14.45,39.35
			c0,7.57,1.2,14.71,3.61,21.42c1.98,5.51,3.4,9.12,4.26,10.84c2.15,4.21,4.77,7.22,7.87,9.03c1.29,0.6,2.58,1.16,3.87,1.68
			c1.38,0.77,2.06,1.85,2.06,3.23c0,1.38-0.45,2.62-1.35,3.74c-0.9,1.12-1.87,1.55-2.9,1.29c-1.12-0.17-2.84-0.73-5.16-1.68
			c-4.13-2.41-8.6-7.53-13.42-15.35c-1.21-1.98-2.43-4.02-3.68-6.13c-1.25-2.11-2.17-4.11-2.77-6c-0.43-1.38-1.16-6.92-2.19-16.64
			c-0.34-3.01-0.52-5.93-0.52-8.77c0-15.22,4.43-28.17,13.29-38.83c5.16-6.19,10.54-9.29,16.13-9.29c2.41,0,4.6,0.73,6.58,2.19
			C473.17,361.54,473.48,362.48,473.48,363.95z"/>
		<path d="M536.56,361.37c-0.77,3.1-2.24,4.9-4.39,5.42c-5.59,1.38-15.31,3.18-29.16,5.42c-1.72,21.42-2.58,39.27-2.58,53.54
			c0,5.42,0.08,10.75,0.26,16c0.08,1.63,0,2.88-0.26,3.74c-0.43,1.38-1.29,2.02-2.58,1.94c-2.5-0.09-4.56-1.14-6.19-3.16
			c-1.63-2.02-2.54-4.28-2.71-6.77c-0.17-3.18-0.26-6.54-0.26-10.06c0-5.68,0.39-14.66,1.16-26.96c0.77-11.78,1.12-20.77,1.03-26.96
			c-2.32-0.17-5.55,0.04-9.68,0.65c-4.73,0.69-8,1.03-9.81,1.03c-4.21,0-7.65-1.13-10.32-3.38c-1.03-2.25-1.55-3.42-1.55-3.51
			c0-0.61,0.3-1.26,0.9-1.95c2.75-0.95,8.39-1.82,16.9-2.6c7.48-0.78,13.07-2.17,16.77-4.16c3.01,1.03,6.45,1.55,10.32,1.55
			s7.57-0.47,11.1-1.42c1.03-0.08,3.65-0.69,7.87-1.81c3.1-0.77,5.68-1.03,7.74-0.77c1.55,0,2.19,0.65,1.94,1.94
			C535.4,359.04,536.56,359.82,536.56,361.37z"/>
	</g>
</g>
</svg>
