<svg xmlns="http://www.w3.org/2000/svg" xmlns:xlink="http://www.w3.org/1999/xlink" viewBox="0 0 114.24 114.38"><defs><style>.cls-1{isolation:isolate;}.cls-2,.cls-3{fill:none;stroke-miterlimit:10;}.cls-2{stroke-width:0.5px;stroke:url(#Nueva_muestra_de_degradado_6);}.cls-3{stroke-width:2px;stroke:url(#Nueva_muestra_de_degradado_5);}.cls-4{mix-blend-mode:multiply;}.cls-5{fill:url(#Degradado_sin_nombre_198);}.cls-6{fill:url(#Degradado_sin_nombre_53);}.cls-7{fill:#fff;}.cls-8{fill:url(#Nueva_muestra_de_degradado_2);}.cls-9{fill:url(#Nueva_muestra_de_degradado_1);}.cls-10{fill:url(#Nueva_muestra_de_degradado_10);}.cls-11{fill:url(#Nueva_muestra_de_degradado_11);}.cls-12{fill:url(#Nueva_muestra_de_degradado_3);}.cls-13{fill:url(#Degradado_sin_nombre_42);}.cls-14{font-size:22.95px;}.cls-14,.cls-15{fill:#231f20;font-family:TrashHand;}.cls-15{font-size:20.75px;}</style><linearGradient id="Nueva_muestra_de_degradado_6" x1="1.18" y1="57.12" x2="113.34" y2="57.12" gradientUnits="userSpaceOnUse"><stop offset="0" stop-color="#58bb69"/><stop offset="1" stop-color="#00b0ba"/></linearGradient><linearGradient id="Nueva_muestra_de_degradado_5" x1="6.12" y1="57.12" x2="108.4" y2="57.12" gradientTransform="translate(0.13 -0.13) rotate(0.13)" gradientUnits="userSpaceOnUse"><stop offset="0" stop-color="#e4097e"/><stop offset="0.46" stop-color="#942067"/><stop offset="1" stop-color="#260f39"/></linearGradient><linearGradient id="Degradado_sin_nombre_198" x1="57.32" y1="14.01" x2="57.32" y2="111.65" gradientUnits="userSpaceOnUse"><stop offset="0" stop-color="#fff" stop-opacity="0"/><stop offset="0.21" stop-color="#f7f6f6" stop-opacity="0.23"/><stop offset="0.6" stop-color="#e8e7e7" stop-opacity="0.63"/><stop offset="0.87" stop-color="#dfdede" stop-opacity="0.88"/><stop offset="1" stop-color="#dbdada" stop-opacity="0.98"/></linearGradient><linearGradient id="Degradado_sin_nombre_53" x1="57.27" y1="56.67" x2="56.76" y2="100.99" gradientTransform="translate(57.16 -23.76) rotate(45)" gradientUnits="userSpaceOnUse"><stop offset="0" stop-color="#e4097e"/><stop offset="0.46" stop-color="#942067"/></linearGradient><linearGradient id="Nueva_muestra_de_degradado_2" x1="50.26" y1="7.23" x2="54.83" y2="7.23" gradientUnits="userSpaceOnUse"><stop offset="0" stop-color="#ffec00"/><stop offset="0.46" stop-color="#f6891f"/><stop offset="0.99" stop-color="#e21f26"/></linearGradient><linearGradient id="Nueva_muestra_de_degradado_1" x1="5462.35" y1="-489.26" x2="5462.35" y2="-602.03" gradientTransform="translate(5469.48 -486.26) rotate(180)" gradientUnits="userSpaceOnUse"><stop offset="0" stop-color="#e94793"/><stop offset="1" stop-color="#6a2b82"/></linearGradient><linearGradient id="Nueva_muestra_de_degradado_10" x1="5801.05" y1="-470.27" x2="5805.62" y2="-470.27" gradientTransform="translate(5864.77 -463.04) rotate(180)" gradientUnits="userSpaceOnUse"><stop offset="0.26" stop-color="#00ac92"/><stop offset="0.73" stop-color="#00a4a9"/><stop offset="1" stop-color="#4068aa"/></linearGradient><linearGradient id="Nueva_muestra_de_degradado_11" x1="-288.44" y1="88.62" x2="-288.44" y2="-24.15" gradientTransform="translate(395.3 23.22)" gradientUnits="userSpaceOnUse"><stop offset="0" stop-color="#ab4c9d"/><stop offset="1" stop-color="#2e3192"/></linearGradient><linearGradient id="Nueva_muestra_de_degradado_3" x1="50.26" y1="107.62" x2="54.83" y2="107.62" gradientUnits="userSpaceOnUse"><stop offset="0" stop-color="#51be93"/><stop offset="1" stop-color="#145e85"/></linearGradient><linearGradient id="Degradado_sin_nombre_42" x1="5801.05" y1="-570.66" x2="5805.62" y2="-570.66" gradientTransform="translate(5864.77 -463.04) rotate(180)" gradientUnits="userSpaceOnUse"><stop offset="0" stop-color="#f3716c"/><stop offset="0.99" stop-color="#ed3895"/></linearGradient></defs><title>logo_hrd-mini</title><g class="cls-1"><g id="Layer_1" data-name="Layer 1"><path class="cls-2" d="M110.16,76a56.07,56.07,0,0,0-.66-37.65H5A56.08,56.08,0,0,0,4.36,76Z"/><circle class="cls-3" cx="57.26" cy="57.12" r="50.14" transform="translate(-0.13 0.13) rotate(-0.13)"/><g class="cls-4"><circle class="cls-5" cx="57.32" cy="61.33" r="39.96"/></g><circle class="cls-6" cx="57.26" cy="57.12" r="37.53" transform="translate(-23.62 57.22) rotate(-45)"/><circle class="cls-7" cx="57.26" cy="57.12" r="32.59" transform="translate(-8.3 104.49) rotate(-80.78)"/><circle class="cls-7" cx="52.54" cy="7.23" r="3.81"/><circle class="cls-8" cx="52.54" cy="7.23" r="2.29"/><path class="cls-7" d="M3.31,57.86a3.81,3.81,0,1,1,3.81,3.81A3.82,3.82,0,0,1,3.31,57.86Z"/><circle class="cls-9" cx="7.12" cy="57.86" r="2.29"/><circle class="cls-7" cx="61.44" cy="7.23" r="3.81"/><circle class="cls-10" cx="61.44" cy="7.23" r="2.29"/><path class="cls-7" d="M110.67,57a3.81,3.81,0,1,1-3.81-3.81A3.82,3.82,0,0,1,110.67,57Z"/><circle class="cls-11" cx="106.86" cy="56.98" r="2.29"/><circle class="cls-7" cx="52.54" cy="107.62" r="3.81"/><circle class="cls-12" cx="52.54" cy="107.62" r="2.29"/><circle class="cls-7" cx="61.44" cy="107.62" r="3.81"/><circle class="cls-13" cx="61.44" cy="107.62" r="2.29"/><text class="cls-14" transform="translate(44.23 48.16)">HRD</text><text class="cls-15" transform="translate(29.5 71.27)">Connect</text></g></g></svg>