<svg xmlns="http://www.w3.org/2000/svg" xmlns:xlink="http://www.w3.org/1999/xlink" viewBox="0 0 708.66 708.66"><defs><style>.cls-1{isolation:isolate;}.cls-2,.cls-3{fill:none;stroke-miterlimit:10;}.cls-2{stroke-width:0.5px;stroke:url(#Nueva_muestra_de_degradado_6);}.cls-3{stroke-width:2px;stroke:url(#Nueva_muestra_de_degradado_5);}.cls-4{mix-blend-mode:multiply;}.cls-5{fill:url(#Degradado_sin_nombre_198);}.cls-6{fill:url(#Degradado_sin_nombre_53);}.cls-7{fill:#fff;}.cls-8{fill:url(#Nueva_muestra_de_degradado_2);}.cls-9{fill:url(#Nueva_muestra_de_degradado_1);}.cls-10{fill:url(#Nueva_muestra_de_degradado_10);}.cls-11{fill:url(#Nueva_muestra_de_degradado_11);}.cls-12{fill:url(#Nueva_muestra_de_degradado_3);}.cls-13{fill:url(#Degradado_sin_nombre_42);}.cls-14{font-size:142.2px;}.cls-14,.cls-15{fill:#231f20;font-family:TrashHand;}.cls-15{font-size:128.6px;}</style><linearGradient id="Nueva_muestra_de_degradado_6" x1="8.07" y1="350.99" x2="700.46" y2="350.99" gradientUnits="userSpaceOnUse"><stop offset="0" stop-color="#58bb69"/><stop offset="1" stop-color="#00b0ba"/></linearGradient><linearGradient id="Nueva_muestra_de_degradado_5" x1="42.56" y1="350.99" x2="665.96" y2="350.99" gradientUnits="userSpaceOnUse"><stop offset="0" stop-color="#e4097e"/><stop offset="0.46" stop-color="#942067"/><stop offset="1" stop-color="#260f39"/></linearGradient><linearGradient id="Degradado_sin_nombre_198" x1="354.63" y1="83.82" x2="354.63" y2="688.85" gradientUnits="userSpaceOnUse"><stop offset="0" stop-color="#fff" stop-opacity="0"/><stop offset="0.21" stop-color="#f7f6f6" stop-opacity="0.23"/><stop offset="0.6" stop-color="#e8e7e7" stop-opacity="0.63"/><stop offset="0.87" stop-color="#dfdede" stop-opacity="0.88"/><stop offset="1" stop-color="#dbdada" stop-opacity="0.98"/></linearGradient><linearGradient id="Degradado_sin_nombre_53" x1="354.3" y1="348.15" x2="351.18" y2="622.78" gradientTransform="translate(351.95 -147.7) rotate(45)" gradientUnits="userSpaceOnUse"><stop offset="0" stop-color="#e4097e"/><stop offset="0.46" stop-color="#942067"/></linearGradient><linearGradient id="Nueva_muestra_de_degradado_2" x1="310.87" y1="41.81" x2="339.21" y2="41.81" gradientUnits="userSpaceOnUse"><stop offset="0" stop-color="#ffec00"/><stop offset="0.46" stop-color="#f6891f"/><stop offset="0.99" stop-color="#e21f26"/></linearGradient><linearGradient id="Nueva_muestra_de_degradado_1" x1="6614.73" y1="686.66" x2="6614.73" y2="-12.1" gradientTransform="translate(6658.32 702.31) rotate(180)" gradientUnits="userSpaceOnUse"><stop offset="0" stop-color="#e94793"/><stop offset="1" stop-color="#6a2b82"/></linearGradient><linearGradient id="Nueva_muestra_de_degradado_10" x1="6659.31" y1="683.73" x2="6687.65" y2="683.73" gradientTransform="translate(7053.61 725.53) rotate(180)" gradientUnits="userSpaceOnUse"><stop offset="0.26" stop-color="#00ac92"/><stop offset="0.73" stop-color="#00a4a9"/><stop offset="1" stop-color="#4068aa"/></linearGradient><linearGradient id="Nueva_muestra_de_degradado_11" x1="266.29" y1="666.81" x2="266.29" y2="-31.95" gradientTransform="translate(395.3 23.22)" gradientUnits="userSpaceOnUse"><stop offset="0" stop-color="#ab4c9d"/><stop offset="1" stop-color="#2e3192"/></linearGradient><linearGradient id="Nueva_muestra_de_degradado_3" x1="310.87" y1="663.87" x2="339.21" y2="663.87" gradientUnits="userSpaceOnUse"><stop offset="0" stop-color="#51be93"/><stop offset="1" stop-color="#145e85"/></linearGradient><linearGradient id="Degradado_sin_nombre_42" x1="6659.31" y1="61.66" x2="6687.65" y2="61.66" gradientTransform="translate(7053.61 725.53) rotate(180)" gradientUnits="userSpaceOnUse"><stop offset="0" stop-color="#f3716c"/><stop offset="0.99" stop-color="#ed3895"/></linearGradient></defs><title>logo_hrd</title><g class="cls-1"><g id="Layer_1" data-name="Layer 1"><path class="cls-2" d="M682,467.62a347.21,347.21,0,0,0-4.1-233.26H30.59A347.28,347.28,0,0,0,26.5,467.62Z"/><circle class="cls-3" cx="354.26" cy="350.99" r="310.7"/><g class="cls-4"><circle class="cls-5" cx="354.63" cy="377.06" r="247.59"/></g><circle class="cls-6" cx="354.26" cy="350.99" r="232.53" transform="translate(-144.42 353.3) rotate(-45)"/><circle class="cls-7" cx="354.26" cy="350.99" r="201.96" transform="translate(-144.42 353.3) rotate(-45)"/><circle class="cls-7" cx="325.04" cy="41.81" r="23.61"/><circle class="cls-8" cx="325.04" cy="41.81" r="14.17"/><path class="cls-7" d="M20,355.57a23.61,23.61,0,1,1,23.61,23.61A23.61,23.61,0,0,1,20,355.57Z"/><circle class="cls-9" cx="43.59" cy="355.57" r="14.17"/><circle class="cls-7" cx="380.13" cy="41.81" r="23.61"/><circle class="cls-10" cx="380.13" cy="41.81" r="14.17"/><path class="cls-7" d="M685.19,350.1a23.61,23.61,0,1,1-23.6-23.6A23.61,23.61,0,0,1,685.19,350.1Z"/><circle class="cls-11" cx="661.59" cy="350.1" r="14.17"/><circle class="cls-7" cx="325.04" cy="663.87" r="23.61"/><circle class="cls-12" cx="325.04" cy="663.87" r="14.17"/><circle class="cls-7" cx="380.13" cy="663.87" r="23.61"/><circle class="cls-13" cx="380.13" cy="663.87" r="14.17"/><text class="cls-14" transform="translate(273.53 295.42)">HRD</text><text class="cls-15" transform="translate(182.24 438.63)">Connect</text></g></g></svg>